# xmcd
#
# Track frame offsets:
#	150
#	14918
#	28400
#	42005
#	54704
#	68924
#	82969
#	99539
#	113732
#	127214
#	146609
#	160858
#
# Disc length: 2307 seconds
#
# Revision: 0
# Processed by: cddbd v1.5.2PL0 Copyright (c) Steve Scherf et al.
# Submitted via: EasyCDDAExtractor 16.0.6.1
#
DISCID=ab09010c
DTITLE=Συλλογικός δίσκος - Ιστορία ρεμπέτικου τραγουδιού-Ανάμνηση Σμύρνης
DYEAR=2007
DGENRE=Ρεμπέτικη
TTITLE0=Νούρος Κώστας - Σμυρναίϊκο μινόρε [παραδοσιακό]
TTITLE1=Ελληνική Εστουδιαντίνα - Δεν σε θέλω πια [παραδοσιακό]
TTITLE2=Νούρος Κώστας - Τα μάτια της Σμυρνιάς [Π. Τούντας]
TTITLE3=Ελληνική Εστουδιαντίνα - Βουρνοβαλιά [παραδοσιακό]
TTITLE4=Μελκόν Μάρκος - Το παράπονο του Μάρκου με το ούτι (Είμαι ένα δερβισάκι
TTITLE4=) [Β. Παπάζογλου]
TTITLE5=Ρούκουνας Κώστας ή Σαμιωτάκης - Μόρτισσα Σμυρνιά [Γ. Πετροπουλέας-Κ. Κ
TTITLE5=αρίπης]
TTITLE6=Παπαγκίκα Μαρίκα - Μανές Μπουρνοβαλιά [παραδοσιακό]
TTITLE7=Διαμαντίδης Αντώνης ή Νταλγκάς - Σμυρνιά καμωματού [Δ. Σέμσης]
TTITLE8=Καρίπης Κώστας - Τζιβαέρι [παραδοσιακό]
TTITLE9=Παπαγκίκα Μαρίκα - Σμυρνιά [παραδοσιακό]
TTITLE10=Βιδάλης Γιώργος-Βαλέρης Γιώργος - Προσφυγοπούλα [Π. Τούντας]
TTITLE11=Νοδέου Γιώργος - Ανάμνηση Σμύρνης [Λ. Στρογγυλός-Τ. Ξανθόπουλος]
EXTD=
EXTT0=
EXTT1=
EXTT2=
EXTT3=
EXTT4=
EXTT5=
EXTT6=
EXTT7=
EXTT8=
EXTT9=
EXTT10=
EXTT11=
PLAYORDER=
